<?xml version="1.0"?>
<svg xmlns="http://www.w3.org/2000/svg" xmlns:xlink="http://www.w3.org/1999/xlink" version="1.1" id="Capa_1" x="0px" y="0px" width="512px" height="512px" viewBox="0 0 25 25" style="enable-background:new 0 0 25 25;" xml:space="preserve"><g><g>
	<g>
		<path d="M4.055,5.338c0-0.224-0.336-0.403-0.75-0.403s-0.75,0.18-0.75,0.403v0.216h1.5V5.338z" data-original="#000000" class="active-path" data-old_color="#000000" fill="#FFFFFF"/>
		<path d="M9.4,5.453l0.413-1.243c0.038-0.114,0.248-0.265,0.368-0.265h4.635c0.121,0,0.33,0.15,0.367,0.264l0.414,1.244    l0.039,0.102h1.038c-0.005-0.018,0-0.032-0.006-0.05l-0.536-1.611c-0.174-0.521-0.767-0.948-1.316-0.948h-4.635    c-0.55,0-1.143,0.427-1.316,0.948L8.329,5.504c-0.006,0.018-0.001,0.032-0.006,0.05h1.038L9.4,5.453z" data-original="#000000" class="active-path" data-old_color="#000000" fill="#FFFFFF"/>
		<path d="M23,5.604V5.108c0-0.367-0.961-0.664-2.146-0.664s-2.146,0.297-2.146,0.664v0.445H22.5    C22.671,5.555,22.837,5.577,23,5.604z" data-original="#000000" class="active-path" data-old_color="#000000" fill="#FFFFFF"/>
		<path d="M22.5,6.055h-20c-1.375,0-2.5,1.125-2.5,2.5v2h7.028c1.155-1.803,3.172-3,5.472-3s4.316,1.197,5.473,3H25v-2    C25,7.18,23.875,6.055,22.5,6.055z" data-original="#000000" class="active-path" data-old_color="#000000" fill="#FFFFFF"/>
		<path d="M19,14.055c0,3.59-2.91,6.5-6.5,6.5s-6.5-2.91-6.5-6.5c0-0.887,0.179-1.73,0.5-2.5H0v8c0,1.375,1.125,2.5,2.5,2.5h20    c1.375,0,2.5-1.125,2.5-2.5v-8h-6.5C18.82,12.324,19,13.168,19,14.055z" data-original="#000000" class="active-path" data-old_color="#000000" fill="#FFFFFF"/>
		<path d="M15.682,17.235c1.758-1.757,1.758-4.606,0-6.363c-1.757-1.757-4.605-1.757-6.363,0c-1.757,1.757-1.757,4.606,0,6.363    C11.076,18.992,13.925,18.992,15.682,17.235z M10.379,11.934c1.17-1.171,3.072-1.171,4.242,0c1.171,1.17,1.171,3.072,0,4.242    c-1.17,1.171-0.95-0.95-2.121-2.121C11.329,12.883,9.208,13.104,10.379,11.934z" data-original="#000000" class="active-path" data-old_color="#000000" fill="#FFFFFF"/>
	</g>
</g></g> </svg>
